Coordinates
version=1
nRows=16
nColumns=22
inDegrees=yes

Units are S.I. units (second, meters, Newtons, ...)
If the header above contains a line with 'inDegrees', this indicates whether rotational values are in degrees (yes) or radians (no).

endheader
time	pelvis_tilt	pelvis_list	pelvis_rotation	pelvis_tx	pelvis_ty	pelvis_tz	hip_flexion_r	hip_adduction_r	hip_rotation_r	knee_angle_r	ankle_angle_r	subtalar_angle_r	hip_flexion_l	hip_adduction_l	hip_rotation_l	knee_angle_l	ankle_angle_l	subtalar_angle_l	lumbar_extension	lumbar_bending	lumbar_rotation
      0.01000000	      0.67706810	      0.53115472	     -9.76144341	     -1.05073640	      0.90734261	     -0.41618706	     -3.68124851	     -0.70042247	     -5.35344597	     -4.05999518	     16.00914640	     -2.85890649	      0.25410489	     -1.35259449	    -15.49292728	    -13.83280838	     15.57882103	     -0.66265766	     -5.21584444	     -2.60879238	      3.01106922
      0.02000000	      0.72431418	      0.50261189	     -9.76151292	     -1.05055547	      0.90740811	     -0.41625520	     -3.77045086	     -0.68169762	     -5.28551286	     -4.02180345	     16.04290729	     -3.00394678	      0.17733891	     -1.36421521	    -15.48593308	    -13.81601433	     15.59607459	     -0.70141579	     -5.26529875	     -2.58685461	      3.01414893
      0.03000000	      0.72541214	      0.49873858	     -9.76198038	     -1.05038221	      0.90740524	     -0.41634815	     -3.77919412	     -0.68506847	     -5.28632133	     -4.02973313	     16.04034470	     -3.00638080	      0.17054896	     -1.35998471	    -15.48089587	    -13.82759338	     15.59608436	     -0.70177706	     -5.25469621	     -2.58778760	      3.02045791
      0.04000000	      0.73748929	      0.49429532	     -9.75815986	     -1.05021845	      0.90741803	     -0.41647186	     -3.79422640	     -0.69043951	     -5.29831904	     -4.04652639	     16.03462639	     -3.02484551	      0.15721303	     -1.35171172	    -15.45585016	    -13.84693909	     15.60355279	     -0.70492901	     -5.26481891	     -2.59410468	      3.06245698
      0.05000000	      0.73797148	      0.48813842	     -9.75535909	     -1.05000216	      0.90741579	     -0.41661162	     -3.80481499	     -0.69383611	     -5.29839795	     -4.05604175	     16.03463191	     -3.02733643	      0.14604080	     -1.34624996	    -15.45425059	    -13.85357429	     15.60403205	     -0.70536045	     -5.25157355	     -2.59129565	      3.06623997
      0.06000000	      0.77520384	      0.47691823	     -9.76143715	     -1.04977370	      0.90747138	     -0.41674910	     -3.84281435	     -0.70005595	     -5.33037035	     -4.08843358	     16.05173235	     -3.06887399	      0.07496705	     -1.33189692	    -15.43322400	    -13.82531255	     15.61588586	     -0.70937891	     -5.28413679	     -2.59384094	      3.12136176
      0.07000000	      0.77542150	      0.47133022	     -9.75051304	     -1.04954070	      0.90747153	     -0.41692578	     -3.85424041	     -0.70516562	     -5.32720829	     -4.09830206	     16.05189990	     -3.07103809	      0.06309682	     -1.32482768	    -15.43513960	    -13.82990191	     15.61495267	     -0.70962921	     -5.27250890	     -2.59203324	      3.12356314
      0.08000000	      0.84477380	      0.47853082	     -9.75681938	     -1.04928527	      0.90757267	     -0.41708801	     -3.92186488	     -0.73995798	     -5.34863388	     -4.13755805	     16.08206659	     -3.12634812	     -0.05691370	     -1.27871584	    -15.42393904	    -13.76926052	     15.60653716	     -0.71063980	     -5.34241347	     -2.62364463	      3.15798723
      0.09000000	      0.84279074	      0.47223228	     -9.74522841	     -1.04904809	      0.90757102	     -0.41727480	     -3.93243775	     -0.74409567	     -5.34507120	     -4.14443658	     16.08251245	     -3.12777095	     -0.06683345	     -1.27226708	    -15.42479892	    -13.77352979	     15.60497277	     -0.71091192	     -5.33164166	     -2.62176687	      3.16169579
      0.10000000	      0.84192073	      0.46626285	     -9.73280153	     -1.04880850	      0.90756996	     -0.41745931	     -3.94289626	     -0.74909786	     -5.34209718	     -4.15464616	     16.08330022	     -3.13005152	     -0.07914604	     -1.26595903	    -15.42387284	    -13.77550979	     15.60428018	     -0.71107917	     -5.32350900	     -2.62310324	      3.16794473
      0.11000000	      0.91292025	      0.48502908	     -9.74020164	     -1.04851727	      0.90766953	     -0.41763249	     -4.01798067	     -0.79750651	     -5.35061069	     -4.18324882	     16.13931606	     -3.19631654	     -0.21997028	     -1.19972923	    -15.39057467	    -13.67729488	     15.58098224	     -0.72105702	     -5.39134542	     -2.66738176	      3.19659349
      0.12000000	      0.91096078	      0.47959457	     -9.72921479	     -1.04827668	      0.90766353	     -0.41782021	     -4.02629276	     -0.80288010	     -5.34652781	     -4.19461311	     16.13717223	     -3.19783653	     -0.22930692	     -1.19398341	    -15.38888731	    -13.68397050	     15.58112950	     -0.72131278	     -5.38301318	     -2.66655128	      3.20308101
      0.13000000	      0.92803566	      0.48427795	     -9.73163305	     -1.04806581	      0.90768443	     -0.41799216	     -4.02823617	     -0.82465226	     -5.33779597	     -4.24693316	     16.13669414	     -3.21737973	     -0.27084708	     -1.16709018	    -15.36051013	    -13.66322544	     15.59601384	     -0.72411792	     -5.40184620	     -2.68527029	      3.24210500
      0.14000000	      0.63018164	      0.60048013	     -9.92366014	     -1.04863282	      0.90703715	     -0.41767928	     -3.46884754	     -0.89915284	     -5.66227250	     -4.52569068	     16.31173156	     -3.08758553	      0.15784979	     -1.13290622	    -15.54654164	    -13.81174540	     15.63944732	     -0.73929469	     -5.10726028	     -2.82320176	      3.44740420
      0.15000000	      0.62943052	      0.59560240	     -9.90645822	     -1.04835186	      0.90703181	     -0.41786294	     -3.47996172	     -0.90403529	     -5.65523044	     -4.54058384	     16.31032329	     -3.08738720	      0.14478642	     -1.12799544	    -15.54563853	    -13.81926101	     15.64098494	     -0.73943473	     -5.09152774	     -2.82197971	      3.45263343
      0.16000000	      0.65233886	      0.59893275	     -9.90214710	     -1.04808016	      0.90705893	     -0.41804385	     -3.49614814	     -0.92676595	     -5.61759149	     -4.59037534	     16.31859025	     -3.09077482	      0.08766436	     -1.09934561	    -15.50846821	    -13.78678570	     15.68258049	     -0.74279621	     -5.10498937	     -2.83541761	      3.47829353
